<svg width="81" height="24" viewBox="0 0 81 24" fill="none" xmlns="http://www.w3.org/2000/svg"><g clip-path="url(#clip0_899_7388)"><path d="M3.00794 7.05823C3.00794 3.51564 6.04203 1.69127 7.29934 1.20047C8.20921 0.866611 9.16162 0.650735 10.1313 0.558583C10.2006 0.552619 10.2705 0.560426 10.3365 0.581511C10.4026 0.602596 10.4634 0.636509 10.5151 0.681124C10.5668 0.725739 10.6084 0.780095 10.6371 0.840793C10.6659 0.90149 10.6813 0.967221 10.6823 1.03387L10.6533 5.29429C10.6533 5.54663 10.3121 5.56133 10.1756 5.58501C9.32263 5.75242 8.26236 6.01702 8.26236 7.47309V9.49754C8.26236 9.53501 8.2779 9.57094 8.30557 9.59744C8.33325 9.62393 8.37078 9.63882 8.40992 9.63882H9.92654C10.0355 9.63872 10.1434 9.65917 10.2441 9.69901C10.3448 9.73885 10.4363 9.79731 10.5134 9.87103C10.5904 9.94475 10.6516 10.0323 10.6933 10.1286C10.735 10.225 10.7565 10.3283 10.7565 10.4326V13.3431C10.7566 13.4473 10.7353 13.5506 10.6937 13.6469C10.6522 13.7433 10.5912 13.8308 10.5143 13.9046C10.4374 13.9784 10.346 14.037 10.2455 14.077C10.1449 14.117 10.0371 14.1376 9.92826 14.1377H8.40822C8.3693 14.1377 8.332 14.1525 8.30448 14.1788C8.27697 14.2052 8.2615 14.2409 8.2615 14.2782V22.6079C8.26139 22.7131 8.23957 22.8173 8.19727 22.9144C8.15498 23.0116 8.09305 23.0997 8.01505 23.1739C7.93706 23.248 7.84453 23.3067 7.74278 23.3465C7.64103 23.3863 7.53208 23.4064 7.42217 23.4058H3.84899C3.73833 23.4065 3.62862 23.3863 3.52615 23.3463C3.42368 23.3063 3.33048 23.2473 3.25192 23.1727C3.17336 23.0981 3.11098 23.0094 3.06838 22.9116C3.02577 22.8138 3.00378 22.7089 3.00367 22.603V14.2733C3.00367 14.2547 2.99985 14.2364 2.99242 14.2193C2.985 14.2022 2.97411 14.1867 2.9604 14.1737C2.94668 14.1606 2.93041 14.1503 2.91251 14.1433C2.89461 14.1362 2.87544 14.1327 2.8561 14.1328H1.35313C1.13075 14.1328 0.917481 14.0482 0.760233 13.8977C0.602986 13.7471 0.514648 13.5429 0.514648 13.33V10.4481C0.514648 10.3427 0.536332 10.2383 0.57847 10.1409C0.620609 10.0435 0.682372 9.95502 0.760233 9.88048C0.838094 9.80593 0.930529 9.7468 1.03226 9.70646C1.13399 9.66612 1.24302 9.64535 1.35313 9.64535H2.86378C2.90292 9.64535 2.94045 9.63047 2.96813 9.60398C2.9958 9.57748 3.01135 9.54155 3.01135 9.50408L3.00794 7.05823Z" fill="#1C1C1C"></path><path d="M13.8994 12.0098V11.7003C13.8994 11.5564 13.9591 11.4184 14.0652 11.3166C14.1714 11.2148 14.3155 11.1574 14.4658 11.1572H18.5892C18.7395 11.1574 18.8835 11.2148 18.9897 11.3166C19.0959 11.4184 19.1555 11.5564 19.1555 11.7003V23.0622C19.1555 23.2061 19.0959 23.3441 18.9897 23.4459C18.8835 23.5478 18.7395 23.6051 18.5892 23.6053H14.4743C14.3995 23.6058 14.3253 23.5922 14.2561 23.5651C14.1868 23.5381 14.1238 23.4981 14.0708 23.4476C14.0177 23.3971 13.9756 23.3371 13.9469 23.2709C13.9183 23.2048 13.9036 23.1338 13.9037 23.0622V12.0098H13.8994Z" fill="#1C1C1C"></path><path d="M22.1241 15.2437C22.1214 14.4523 22.2308 13.6641 22.4491 12.9008C22.8603 11.4486 23.6624 10.1251 24.7752 9.06257C25.3214 8.53921 25.9375 8.08724 26.6074 7.71838C28.0142 6.94983 29.6074 6.54906 31.2272 6.5563C32.4159 6.54968 33.5943 6.76797 34.6947 7.19864C35.795 7.6293 36.7957 8.26385 37.6391 9.06584C38.4622 9.85717 39.1192 10.7922 39.5746 11.8204C40.0541 12.9013 40.296 14.0653 40.2851 15.2397C40.2879 16.0293 40.1783 16.8156 39.9592 17.5769C39.7506 18.3066 39.4448 19.0076 39.0491 19.6626C38.2505 20.9701 37.1067 22.0535 35.7326 22.8041C34.3585 23.5548 32.8024 23.9463 31.2204 23.9393C30.3961 23.9422 29.5752 23.8401 28.7791 23.6355C26.4979 23.0431 24.5513 21.6159 23.3592 19.6618C22.5456 18.32 22.1194 16.7952 22.1241 15.2437ZM27.1729 15.2437C27.1686 15.7997 27.2644 16.3522 27.4561 16.877C27.6316 17.3616 27.9043 17.8088 28.2588 18.1934C28.6093 18.5681 29.0379 18.8683 29.5169 19.0746C30.0413 19.2977 30.61 19.4091 31.1837 19.4013C31.7439 19.4084 32.2988 19.2968 32.8086 19.0746C33.2798 18.8678 33.6997 18.5674 34.0403 18.1934C34.3856 17.8071 34.6487 17.3599 34.8149 16.877C35.1734 15.8205 35.1734 14.6825 34.8149 13.626C34.6461 13.1338 34.3835 12.6758 34.0403 12.2752C33.6936 11.8735 33.2567 11.5517 32.7621 11.3338C32.2675 11.1159 31.728 11.0076 31.1837 11.0168C30.6086 11.0083 30.039 11.1239 29.5169 11.3549C29.0341 11.573 28.6052 11.887 28.2588 12.2761C27.9065 12.675 27.6343 13.133 27.4561 13.6268C27.266 14.1463 27.1705 14.6932 27.1738 15.2437H27.1729Z" fill="#1C1C1C"></path><path d="M46.246 6.90317C46.3903 6.88913 46.5361 6.90644 46.6725 6.9538C46.7886 7.00327 46.8923 7.07626 46.9761 7.16776C47.0606 7.26366 47.1288 7.37169 47.1783 7.48788C47.2286 7.61201 47.2798 7.73288 47.3233 7.8668L47.7498 9.55563C47.922 9.22887 48.1232 8.91686 48.3512 8.62302C48.6357 8.25281 48.9734 7.92289 49.3542 7.64304C49.7936 7.32061 50.2806 7.06246 50.7992 6.87704C51.4216 6.65918 52.0807 6.55368 52.7432 6.56589C53.7003 6.55007 54.6494 6.73586 55.5232 7.11011C56.397 7.48437 57.1741 8.03794 57.7997 8.73163C58.4109 9.4234 58.8809 10.219 59.185 11.077C59.514 11.9988 59.675 12.9678 59.6609 13.9418V22.7926C59.6609 22.8968 59.6395 23 59.5978 23.0963C59.5562 23.1926 59.4951 23.2801 59.4181 23.3538C59.3411 23.4276 59.2497 23.486 59.1491 23.5259C59.0485 23.5658 58.9407 23.5863 58.8319 23.5863H55.3124C55.2033 23.5864 55.0951 23.5659 54.9943 23.5259C54.8934 23.4859 54.8018 23.4273 54.7247 23.3533C54.6476 23.2793 54.5865 23.1915 54.5449 23.0948C54.5034 22.9982 54.4821 22.8946 54.4825 22.7901L54.4986 14.1598C54.5025 13.7716 54.4132 13.3877 54.2377 13.0378C54.0607 12.6924 53.821 12.3799 53.5297 12.115C53.2365 11.8523 52.898 11.6404 52.5291 11.4886C52.1689 11.3396 51.7811 11.2613 51.3886 11.2583C51.0401 11.2617 50.6959 11.3328 50.377 11.4674C50.0273 11.6115 49.7051 11.8102 49.4234 12.0554C49.1378 12.3115 48.8985 12.6112 48.7154 12.9422C48.5118 13.3096 48.4041 13.7187 48.4015 14.1345L48.387 22.7909C48.3868 23.0015 48.2992 23.2034 48.1436 23.3523C47.988 23.5011 47.777 23.5847 47.557 23.5847H43.9932C43.7741 23.5849 43.5637 23.5021 43.4082 23.3542C43.2527 23.2064 43.1646 23.0056 43.1632 22.7958L43.0703 7.80556V7.69449C43.0703 7.4839 43.1576 7.28191 43.3131 7.13292C43.4685 6.98392 43.6794 6.90013 43.8994 6.89991L46.246 6.90317Z" fill="#1C1C1C"></path><path d="M80.6951 7.78785V22.7953C80.6951 23.0058 80.6078 23.2077 80.4523 23.3566C80.2968 23.5054 80.0859 23.589 79.866 23.589H77.023C76.8285 23.589 76.6033 22.988 76.553 22.859C76.5026 22.7299 76.4515 22.5846 76.3943 22.4351L75.99 21.438C75.7409 21.6765 74.0768 22.908 73.7202 23.1366C73.3591 23.368 72.972 23.5597 72.5661 23.7083C72.1424 23.8642 71.6919 23.9426 71.238 23.9394C70.4228 23.9424 69.6108 23.8402 68.824 23.6356C67.3178 23.2441 65.9461 22.479 64.8474 21.4176C64.3034 20.8924 63.8316 20.3029 63.4434 19.6635C63.0453 19.0094 62.7392 18.3078 62.5332 17.5769C62.3211 16.8149 62.2164 16.0291 62.2219 15.2405C62.2134 14.0958 62.4414 12.9607 62.8927 11.9006C63.344 10.8405 64.0098 9.87633 64.8517 9.06345C65.6904 8.26098 66.6871 7.62593 67.7841 7.19514C68.8811 6.76435 70.0566 6.54638 71.2423 6.5539C71.7771 6.54918 72.3087 6.63204 72.8143 6.7989C73.2813 6.95412 73.7237 7.1704 74.1288 7.4416C74.5177 7.7022 74.875 8.0035 75.1942 8.33991C75.502 8.66099 75.787 9.00148 76.0472 9.35908L76.5871 7.75682C76.6792 7.53633 76.7554 7.35748 76.8157 7.22029C76.8597 7.10819 76.9251 7.0049 77.0085 6.91568C77.2347 6.88715 77.4635 6.88195 77.6909 6.90017H79.8703C80.0903 6.90038 80.3011 6.9842 80.4566 7.13319C80.6121 7.28218 80.6994 7.48415 80.6994 7.69475L80.6951 7.78785ZM67.2017 15.243C67.1973 15.7989 67.2931 16.3514 67.4848 16.8763C67.6608 17.362 67.9356 17.8094 68.2935 18.1927C68.6477 18.5665 69.0786 18.8665 69.5593 19.0738C70.0743 19.2952 70.6335 19.4066 71.1979 19.4005C71.7884 19.4045 72.3734 19.2933 72.9176 19.0738C73.433 18.8668 73.9025 18.5678 74.3011 18.1927C74.6965 17.817 75.0094 17.3694 75.2215 16.8763C75.5508 16.1064 75.6392 15.2615 75.4758 14.4444C75.3124 13.6273 74.9042 12.8734 74.3011 12.2745C73.9065 11.8846 73.4366 11.5718 72.9176 11.3533C72.3755 11.1261 71.7896 11.0109 71.1979 11.0152C70.6321 11.0086 70.072 11.1241 69.5593 11.3533C69.0748 11.5724 68.6436 11.8862 68.2935 12.2745C67.9378 12.6722 67.6635 13.1304 67.4848 13.6252C67.2942 14.1452 67.1984 14.6927 67.2017 15.2438V15.243Z" fill="#1C1C1C"></path><path d="M13.7373 1.38166V1.30735C13.7373 1.16678 13.7956 1.03197 13.8994 0.932577C14.0032 0.833182 14.1441 0.777344 14.2909 0.777344H18.491C18.5638 0.777237 18.6358 0.790869 18.7031 0.817456C18.7704 0.844043 18.8315 0.883064 18.883 0.93229C18.9345 0.981516 18.9753 1.03998 19.0032 1.10433C19.0311 1.16869 19.0454 1.23768 19.0454 1.30735V5.4322C19.045 6.31453 18.7944 7.18018 18.3204 7.93684C17.8102 8.63694 17.2168 9.27795 16.5522 9.84697C16.4509 9.93391 16.3197 9.982 16.1837 9.982C16.0476 9.982 15.9164 9.93391 15.8152 9.84697L14.4436 8.68488C14.3965 8.64495 14.3586 8.59613 14.3321 8.54149C14.3057 8.48686 14.2914 8.42758 14.29 8.36738C14.2887 8.30719 14.3003 8.24738 14.3242 8.1917C14.3482 8.13602 14.3839 8.08567 14.4291 8.04382C14.7982 7.78002 15.0907 7.43008 15.2785 7.02738C15.4664 6.62467 15.5434 6.18261 15.5021 5.74334C15.5021 5.56531 15.4757 5.36769 15.3 5.36769L14.2764 5.35625C14.131 5.35411 13.9922 5.29735 13.8901 5.19821C13.788 5.09907 13.7307 4.96549 13.7305 4.82625L13.7373 1.38166Z" fill="#1C1C1C"></path></g><defs><clipPath id="clip0_899_7388"><rect width="80.1811" height="23.3862" fill="white" transform="translate(0.518555 0.557129)"></rect></clipPath></defs></svg>