<?xml version="1.0" standalone="no"?>
<!DOCTYPE svg PUBLIC "-//W3C//DTD SVG 20010904//EN"
 "http://www.w3.org/TR/2001/REC-SVG-20010904/DTD/svg10.dtd">
<svg version="1.0" xmlns="http://www.w3.org/2000/svg"
 width="301.000000pt" height="301.000000pt" viewBox="0 0 301.000000 301.000000"
 preserveAspectRatio="xMidYMid meet">
<metadata>
Created by potrace 1.14, written by Peter Selinger 2001-2017
</metadata>
<g transform="translate(0.000000,301.000000) scale(0.100000,-0.100000)"
fill="#000000" stroke="none">
<path d="M1669 3006 c-2 -2 -26 -6 -54 -9 -27 -3 -65 -9 -82 -13 l-33 -6 0
-290 c0 -199 -3 -287 -10 -283 -44 27 -348 41 -465 22 -144 -24 -322 -89 -438
-160 -472 -285 -691 -853 -535 -1382 26 -89 81 -212 132 -295 22 -36 43 -67
46 -70 3 -3 23 -27 45 -54 47 -59 126 -138 175 -175 19 -14 37 -28 40 -31 32
-36 229 -139 330 -173 195 -66 440 -81 640 -39 l35 8 3 286 2 285 68 -14 c73
-16 284 -22 373 -11 495 63 898 421 1024 907 40 155 42 389 5 556 -89 405
-406 755 -800 883 -119 39 -213 54 -356 58 -78 2 -143 2 -145 0z"/>
</g>
</svg>
